<svg xmlns="http://www.w3.org/2000/svg" viewBox="0 0 96 132">
<defs><filter id="s"><feDropShadow dx="0" dy="5" stdDeviation="3" flood-color="#2d1e14" flood-opacity=".35"/></filter><linearGradient id="r" x1="0" y1="0" x2="1" y2="1"><stop stop-color="#9a6542"/><stop offset="1" stop-color="#4b3325"/></linearGradient></defs>
<g filter="url(#s)">
<ellipse cx="48" cy="121" rx="22" ry="7" fill="#36251a" opacity=".28"/>
<path d="M31 58 25 101h46L65 58Z" fill="url(#r)" stroke="#513525" stroke-width="3"/>
<path d="M29 61c13 9 25 9 38 0l3 17c-12 8-31 8-44 0Z" fill="#6e7b45" stroke="#34402f" stroke-width="2"/>
<path d="M35 79h27" stroke="#8c5d34" stroke-width="6"/>
<rect x="58" y="76" width="18" height="21" rx="4" fill="#7a4c31" stroke="#4a2f22" stroke-width="3"/>
<circle cx="48" cy="34" r="17" fill="#c88b67" stroke="#5c3c2e" stroke-width="3"/>
<path d="M27 33c1-18 12-27 24-25 14 2 20 12 17 28-5-5-11-8-17-9-6 5-14 8-24 6Z" fill="#704431"/><path d="M31 21c5-12 19-17 30-8M28 28c-2-9 4-18 14-22" stroke="#704431" stroke-width="7" stroke-linecap="round"/>

<circle cx="41" cy="35" r="2" fill="#2b211d"/><circle cx="55" cy="35" r="2" fill="#2b211d"/>
<path d="M42 44q6 4 12 0" stroke="#7e4c3c" stroke-width="2" fill="none"/>
<path d="M31 104 29 121h14l3-17M61 104l4 17h14l-7-17" fill="#6a452e" stroke="#493022" stroke-width="3"/>
<path d="M18 63 6 113" stroke="#6a472f" stroke-width="5" stroke-linecap="round"/><path d="M6 113q-6-9 4-14" fill="none" stroke="#6a472f" stroke-width="5"/><ellipse cx="78" cy="103" rx="13" ry="9" fill="#e7dcc1"/><circle cx="88" cy="101" r="5" fill="#705948"/>
</g></svg>