<svg xmlns="http://www.w3.org/2000/svg" viewBox="0 0 96 132"><defs><filter id="s"><feDropShadow dx="0" dy="5" stdDeviation="3" flood-opacity=".35"/></filter></defs><g filter="url(#s)">
    <ellipse cx="48" cy="121" rx="28" ry="7" fill="#36251a" opacity=".25"/>
    <path d="M28 55 20 104h57L68 55Z" fill="#eee0bf" stroke="#563a29" stroke-width="3"/>
    <path d="M27 58c12 9 29 10 42 0l7 36c-17 10-36 10-54 0Z" fill="#43543b" stroke="#35402f" stroke-width="3"/>
    <path d="M34 79h28" stroke="#9a6434" stroke-width="6"/><rect x="58" y="73" width="18" height="21" rx="4" fill="#7d4f31" stroke="#4a3022" stroke-width="3"/>
    <circle cx="48" cy="33" r="20" fill="#c88965" stroke="#5d3c2e" stroke-width="3"/>
    <path d="M27 36c-1-20 10-29 22-29 15 0 23 10 21 29-8-7-17-10-22-10-8 0-14 3-21 10Z" fill="#493027"/>
    
    <path d="M31 104 29 124h14l3-20M61 104l4 15h14l-8-15" fill="#6e482f" stroke="#4a3021" stroke-width="3"/>
    <path d="M72 59 84 115" stroke="#68472e" stroke-width="5" stroke-linecap="round"/><path d="M84 115q7-9-3-14" fill="none" stroke="#68472e" stroke-width="5"/>
    </g></svg>