<svg xmlns="http://www.w3.org/2000/svg" viewBox="0 0 210 180"><defs><filter id="s"><feDropShadow dx="0" dy="8" stdDeviation="5" flood-opacity=".3"/></filter><radialGradient id="l"><stop stop-color="#81914b"/><stop offset="1" stop-color="#516234"/></radialGradient></defs><g filter="url(#s)"><ellipse cx="105" cy="161" rx="55" ry="13" fill="#5b452d" opacity=".25"/><path d="M101 151c2-38 0-66 5-92M105 104c-17-22-27-34-44-45M107 91c19-22 34-31 52-38" stroke="#64432b" stroke-width="12" stroke-linecap="round"/><path d="M103 151c-7-42-14-58-26-75M109 145c8-35 18-51 33-65" stroke="#765238" stroke-width="7" stroke-linecap="round"/><g fill="url(#l)" stroke="#46532e" stroke-width="3"><ellipse cx="52" cy="51" rx="38" ry="24"/><ellipse cx="83" cy="38" rx="43" ry="27"/><ellipse cx="127" cy="38" rx="44" ry="27"/><ellipse cx="159" cy="54" rx="36" ry="23"/><ellipse cx="107" cy="61" rx="49" ry="27"/></g><g fill="#9c814e"><circle cx="39" cy="68" r="3"/><circle cx="169" cy="69" r="3"/><circle cx="121" cy="71" r="3"/></g></g></svg>