<svg xmlns="http://www.w3.org/2000/svg" viewBox="0 0 180 150" shape-rendering="crispEdges">
<rect width="180" height="150" fill="none"/>
<rect x="29" y="101" width="122" height="12" fill="#5c4e43"/><rect x="40" y="89" width="100" height="13" fill="#8e7b68"/>
<rect x="31" y="97" width="18" height="17" fill="#9f8c78"/><rect x="54" y="91" width="19" height="20" fill="#726458"/><rect x="79" y="88" width="21" height="22" fill="#a89984"/><rect x="105" y="91" width="20" height="20" fill="#73655a"/><rect x="131" y="97" width="18" height="17" fill="#9c8a76"/>
<rect x="57" y="102" width="69" height="9" fill="#3c281b" transform="rotate(-22 91 106)"/><rect x="58" y="100" width="67" height="9" fill="#4a2c1b" transform="rotate(22 91 104)"/>
<rect x="75" y="47" width="34" height="54" fill="#f36b1d"/><rect x="65" y="67" width="54" height="28" fill="#f36b1d"/>
<rect x="82" y="27" width="21" height="68" fill="#ff9e22"/><rect x="74" y="52" width="37" height="40" fill="#ff9e22"/>
<rect x="87" y="45" width="13" height="45" fill="#ffe45c"/><rect x="83" y="66" width="21" height="24" fill="#fff0a0"/>
<rect x="91" y="19" width="6" height="17" fill="#ffb42b"/>
</svg>