<svg xmlns="http://www.w3.org/2000/svg" viewBox="0 0 240 180" shape-rendering="crispEdges">
<rect width="240" height="180" fill="none"/>
<polygon points="26,150 51,64 118,22 191,65 216,150" fill="#234d82"/>
<polygon points="38,147 66,68 118,37 118,151" fill="#f0dfb6"/>
<polygon points="118,37 174,69 203,147 118,151" fill="#e4cf9f"/>
<polygon points="74,81 118,37 164,83 149,96 118,68 89,97" fill="#a6252b"/>
<rect x="93" y="104" width="54" height="47" fill="#8f2728"/>
<rect x="107" y="115" width="27" height="36" fill="#322018"/>
<rect x="44" y="58" width="7" height="99" fill="#51331f"/><rect x="115" y="15" width="7" height="143" fill="#51331f"/><rect x="196" y="59" width="7" height="98" fill="#51331f"/>
<rect x="41" y="54" width="13" height="7" fill="#8c5b27"/><rect x="112" y="11" width="13" height="7" fill="#8c5b27"/><rect x="193" y="55" width="13" height="7" fill="#8c5b27"/>
<rect x="27" y="150" width="188" height="8" fill="#7b4b27"/><rect x="38" y="158" width="166" height="5" fill="#3a2418"/>
<polygon points="45,151 20,171 17,166 40,148" fill="#67442c"/><polygon points="200,151 222,170 225,166 205,148" fill="#67442c"/>
</svg>