<svg xmlns="http://www.w3.org/2000/svg" viewBox="0 0 170 240" shape-rendering="crispEdges">
<rect width="170" height="240" fill="none"/>
<rect x="38" y="74" width="94" height="54" fill="#6c462a"/><rect x="45" y="82" width="80" height="13" fill="#9b6a39"/>
<polygon points="32,74 84,42 138,74" fill="#4b3222"/><rect x="80" y="15" width="8" height="31" fill="#4b2e1d"/>
<rect x="87" y="14" width="61" height="39" fill="#8d2026"/><rect x="92" y="19" width="51" height="29" fill="#68171d"/>
<rect x="112" y="23" width="14" height="23" fill="#e3b63f"/><rect x="107" y="29" width="24" height="5" fill="#e3b63f"/>
<rect x="35" y="128" width="10" height="88" fill="#50321f"/><rect x="124" y="128" width="10" height="88" fill="#50321f"/>
<rect x="54" y="128" width="8" height="90" fill="#6b4528"/><rect x="107" y="128" width="8" height="90" fill="#6b4528"/>
<rect x="49" y="151" width="70" height="8" fill="#815530"/><rect x="45" y="181" width="78" height="8" fill="#815530"/>
<polygon points="35,216 48,216 69,128 59,128" fill="#6e492b"/><polygon points="121,216 134,216 111,128 101,128" fill="#6e492b"/>
<rect x="31" y="59" width="19" height="18" fill="#27201a"/><rect x="120" y="59" width="19" height="18" fill="#27201a"/>
<rect x="35" y="49" width="11" height="14" fill="#ffb42c"/><rect x="39" y="40" width="4" height="13" fill="#ffe075"/>
<rect x="124" y="49" width="11" height="14" fill="#ffb42c"/><rect x="128" y="40" width="4" height="13" fill="#ffe075"/>
</svg>